<svg xmlns="http://www.w3.org/2000/svg" xmlns:xlink="http://www.w3.org/1999/xlink" width="570" zoomAndPan="magnify" viewBox="0 0 427.5 287.999989" height="384" preserveAspectRatio="xMidYMid meet" version="1.0"><defs><g/><clipPath id="8b6032c860"><path d="M 37.601562 132 L 390.101562 132 L 390.101562 168.996094 L 37.601562 168.996094 Z M 37.601562 132 " clip-rule="nonzero"/></clipPath><clipPath id="d20f83b728"><path d="M 145 37.746094 L 353 37.746094 L 353 131 L 145 131 Z M 145 37.746094 " clip-rule="nonzero"/></clipPath></defs><g clip-path="url(#8b6032c860)"><path fill="#000000" d="M 37.652344 150.699219 C 37.652344 150.699219 38.988281 151.097656 41.484375 151.839844 C 42.734375 152.210938 44.273438 152.671875 46.085938 153.214844 C 47.890625 153.78125 49.984375 154.375 52.351562 154.902344 C 54.695312 155.464844 57.289062 156.089844 60.105469 156.769531 C 62.980469 157.296875 66.082031 157.871094 69.402344 158.476562 C 76.058594 159.558594 83.628906 160.378906 91.878906 160.910156 C 96.015625 161.113281 100.335938 161.171875 104.785156 161.214844 C 109.261719 161.03125 113.859375 161.1875 118.59375 160.789062 C 128.0625 160.390625 137.992188 159.054688 148.25 157.738281 C 158.503906 156.3125 169.003906 154.230469 179.734375 152.222656 C 190.449219 150.109375 201.332031 147.785156 212.246094 145.417969 C 223.203125 143.164062 234.226562 140.945312 245.175781 138.917969 C 256.128906 136.890625 267.078125 135.375 277.742188 134.179688 C 288.4375 133.074219 298.867188 132.367188 308.8125 132.492188 C 313.765625 132.378906 318.605469 132.734375 323.253906 132.914062 C 327.910156 133.316406 332.402344 133.734375 336.679688 134.28125 C 340.925781 135.007812 345.035156 135.425781 348.835938 136.328125 C 352.632812 137.242188 356.277344 137.890625 359.570312 138.894531 C 362.871094 139.875 365.96875 140.742188 368.78125 141.636719 C 371.527344 142.679688 374.050781 143.632812 376.328125 144.496094 C 377.460938 144.925781 378.53125 145.332031 379.542969 145.71875 C 380.503906 146.171875 381.414062 146.597656 382.261719 146.996094 C 383.941406 147.785156 385.371094 148.457031 386.535156 149.003906 C 388.832031 150.109375 390.054688 150.699219 390.054688 150.699219 C 390.054688 150.699219 388.714844 150.304688 386.207031 149.570312 C 384.972656 149.195312 383.429688 148.738281 381.625 148.199219 C 379.84375 147.628906 377.765625 147.039062 375.382812 146.511719 C 373.03125 145.945312 370.429688 145.320312 367.597656 144.636719 C 364.722656 144.105469 361.617188 143.535156 358.304688 142.925781 C 351.644531 141.855469 344.082031 141.03125 335.824219 140.496094 C 331.691406 140.296875 327.371094 140.242188 322.917969 140.195312 C 318.449219 140.371094 313.851562 140.222656 309.113281 140.617188 C 299.644531 141.03125 289.714844 142.347656 279.457031 143.660156 C 269.199219 145.089844 258.703125 147.1875 247.976562 149.175781 C 237.253906 151.28125 226.382812 153.617188 215.460938 155.976562 C 204.496094 158.21875 193.476562 160.445312 182.535156 162.472656 C 171.570312 164.476562 160.628906 166.007812 149.953125 167.207031 C 139.265625 168.3125 128.835938 169.003906 118.898438 168.886719 C 113.945312 169 109.101562 168.648438 104.449219 168.46875 C 99.796875 168.066406 95.308594 167.648438 91.039062 167.101562 C 86.78125 166.371094 82.671875 165.957031 78.871094 165.054688 C 75.078125 164.136719 71.433594 163.488281 68.140625 162.492188 C 64.832031 161.507812 61.738281 160.648438 58.921875 159.746094 C 56.167969 158.699219 53.632812 157.75 51.347656 156.886719 C 50.214844 156.457031 49.140625 156.039062 48.128906 155.660156 C 47.171875 155.210938 46.269531 154.78125 45.4375 154.390625 C 43.765625 153.59375 42.339844 152.921875 41.1875 152.371094 C 38.878906 151.28125 37.652344 150.699219 37.652344 150.699219 Z M 37.652344 150.699219 " fill-opacity="1" fill-rule="nonzero"/></g><path fill="#000000" d="M 237.773438 130.019531 L 235.082031 130.019531 L 283.167969 75.003906 L 335.835938 130.019531 L 322.121094 130.019531 L 278.40625 83.53125 Z M 237.773438 130.019531 " fill-opacity="1" fill-rule="nonzero"/><path fill="#000000" d="M 182.886719 52.445312 L 205.582031 76.632812 L 206.980469 76.632812 L 180.410156 48.007812 L 154.957031 74.597656 L 160.820312 75.910156 Z M 182.886719 52.445312 " fill-opacity="1" fill-rule="nonzero"/><path fill="#cb9a28" d="M 86.945312 130.019531 L 97.867188 130.019531 L 132.699219 92.984375 L 165.074219 130.019531 L 167.21875 130.019531 L 128.90625 86.1875 Z M 86.945312 130.019531 " fill-opacity="1" fill-rule="nonzero"/><path fill="#000000" d="M 267.804688 112.972656 L 277.082031 112.972656 L 277.082031 122.246094 L 267.804688 122.246094 Z M 267.804688 112.972656 " fill-opacity="1" fill-rule="nonzero"/><path fill="#000000" d="M 280.863281 112.972656 L 290.140625 112.972656 L 290.140625 122.246094 L 280.863281 122.246094 Z M 280.863281 112.972656 " fill-opacity="1" fill-rule="nonzero"/><path fill="#000000" d="M 267.894531 109.191406 L 277.082031 109.191406 L 277.082031 100.011719 C 272.398438 100.808594 268.691406 104.511719 267.894531 109.191406 Z M 267.894531 109.191406 " fill-opacity="1" fill-rule="nonzero"/><path fill="#000000" d="M 280.863281 100.011719 L 280.863281 109.191406 L 290.046875 109.191406 C 289.25 104.511719 285.546875 100.808594 280.863281 100.011719 Z M 280.863281 100.011719 " fill-opacity="1" fill-rule="nonzero"/><path fill="#000000" d="M 176.113281 70.472656 L 181.945312 70.472656 L 181.945312 76.296875 L 176.113281 76.296875 Z M 176.113281 70.472656 " fill-opacity="1" fill-rule="nonzero"/><path fill="#000000" d="M 184.324219 70.472656 L 190.15625 70.472656 L 190.15625 76.296875 L 184.324219 76.296875 Z M 184.324219 70.472656 " fill-opacity="1" fill-rule="nonzero"/><path fill="#000000" d="M 176.171875 68.089844 L 181.945312 68.089844 L 181.945312 62.320312 C 179.003906 62.820312 176.671875 65.148438 176.171875 68.089844 Z M 176.171875 68.089844 " fill-opacity="1" fill-rule="nonzero"/><path fill="#000000" d="M 184.324219 62.320312 L 184.324219 68.089844 L 190.097656 68.089844 C 189.597656 65.148438 187.269531 62.820312 184.324219 62.320312 Z M 184.324219 62.320312 " fill-opacity="1" fill-rule="nonzero"/><path fill="#cb9a28" d="M 121.472656 118.71875 L 129.667969 118.71875 L 129.667969 126.910156 L 121.472656 126.910156 Z M 121.472656 118.71875 " fill-opacity="1" fill-rule="nonzero"/><path fill="#cb9a28" d="M 133.007812 118.71875 L 141.207031 118.71875 L 141.207031 126.910156 L 133.007812 126.910156 Z M 133.007812 118.71875 " fill-opacity="1" fill-rule="nonzero"/><path fill="#cb9a28" d="M 121.550781 115.378906 L 129.667969 115.378906 L 129.667969 107.265625 C 125.527344 107.96875 122.253906 111.242188 121.550781 115.378906 Z M 121.550781 115.378906 " fill-opacity="1" fill-rule="nonzero"/><path fill="#cb9a28" d="M 133.007812 107.265625 L 133.007812 115.378906 L 141.125 115.378906 C 140.421875 111.242188 137.148438 107.96875 133.007812 107.265625 Z M 133.007812 107.265625 " fill-opacity="1" fill-rule="nonzero"/><path fill="#000000" d="M 200.273438 95.746094 C 198.914062 96.625 197.414062 97.296875 196.066406 98.191406 C 195.09375 98.839844 194.511719 98.78125 193.9375 97.746094 C 192.910156 95.894531 191.832031 94.074219 190.746094 92.257812 C 190.269531 91.46875 190.339844 90.878906 191.285156 90.617188 C 191.367188 90.554688 191.453125 90.5 191.535156 90.433594 L 127.777344 76.105469 L 75.609375 130.019531 L 80.261719 130.019531 L 129.738281 78.886719 L 173.519531 130.019531 L 221.828125 130.019531 C 215.355469 118.945312 208.886719 107.867188 203.082031 96.414062 C 202.269531 94.816406 201.519531 94.941406 200.273438 95.746094 Z M 200.273438 95.746094 " fill-opacity="1" fill-rule="evenodd"/><g clip-path="url(#d20f83b728)"><path fill="#cb9a28" d="M 285.167969 60.859375 L 284.894531 60.578125 L 252.480469 67.4375 L 236.539062 48 L 179.230469 37.761719 L 145.617188 72.496094 L 148.46875 73.136719 L 180.324219 40.214844 L 213.832031 76.378906 L 201.6875 84.757812 C 205.785156 83.273438 210.140625 82.527344 214.75 82.542969 C 216.46875 82.550781 216.445312 84.128906 217.058594 85.03125 C 217.753906 86.050781 216.5 86.367188 215.890625 86.734375 C 213.449219 88.191406 211.003906 89.652344 208.476562 90.949219 C 206.9375 91.738281 206.796875 92.464844 207.746094 93.894531 C 214.738281 104.445312 220.886719 115.507812 227.253906 126.4375 L 282.121094 64.304688 L 345.714844 130.019531 L 352.089844 130.019531 Z M 285.167969 60.859375 " fill-opacity="1" fill-rule="evenodd"/></g><g fill="#000000" fill-opacity="1"><g transform="translate(60.247253, 212.303937)"><g><path d="M 22.671875 -3.578125 L 22.671875 0 L 4.984375 0 L 4.984375 -24.078125 L 8.703125 -24.078125 L 8.703125 -3.578125 Z M 22.671875 -3.578125 "/></g></g></g><g fill="#000000" fill-opacity="1"><g transform="translate(86.59909, 212.303937)"><g><path d="M 23.53125 0 L 20.953125 -5.78125 L 8.59375 -5.78125 L 6.015625 0 L 2.171875 0 L 12.828125 -24.078125 L 16.921875 -24.078125 L 27.5625 0 Z M 12.90625 -15.546875 L 10.1875 -9.359375 L 19.375 -9.359375 L 16.578125 -15.6875 C 15.941406 -17.113281 15.335938 -18.628906 14.765625 -20.234375 C 14.460938 -19.378906 14.15625 -18.5625 13.84375 -17.78125 C 13.539062 -17.007812 13.226562 -16.265625 12.90625 -15.546875 Z M 12.90625 -15.546875 "/></g></g></g><g fill="#000000" fill-opacity="1"><g transform="translate(116.322313, 212.303937)"><g><path d="M 25.109375 -16.546875 C 25.109375 -14.960938 24.613281 -13.519531 23.625 -12.21875 C 22.644531 -10.925781 21.398438 -10.007812 19.890625 -9.46875 L 26.328125 0.03125 L 21.75 0 L 15.71875 -8.953125 L 8.703125 -8.953125 L 8.703125 0 L 4.984375 0 L 4.984375 -24.078125 L 17.375 -24.078125 C 18.726562 -24.078125 19.988281 -23.753906 21.15625 -23.109375 C 22.332031 -22.472656 23.285156 -21.59375 24.015625 -20.46875 C 24.742188 -19.34375 25.109375 -18.035156 25.109375 -16.546875 Z M 16.515625 -20.5 L 8.703125 -20.5 L 8.703125 -12.53125 L 16.96875 -12.53125 C 17.769531 -12.53125 18.488281 -12.71875 19.125 -13.09375 C 19.769531 -13.46875 20.28125 -13.960938 20.65625 -14.578125 C 21.039062 -15.203125 21.234375 -15.867188 21.234375 -16.578125 C 21.234375 -17.335938 21.015625 -18.015625 20.578125 -18.609375 C 20.140625 -19.210938 19.5625 -19.675781 18.84375 -20 C 18.132812 -20.332031 17.359375 -20.5 16.515625 -20.5 Z M 16.515625 -20.5 "/></g></g></g><g fill="#000000" fill-opacity="1"><g transform="translate(146.320761, 212.303937)"><g><path d="M 23.53125 0 L 20.953125 -5.78125 L 8.59375 -5.78125 L 6.015625 0 L 2.171875 0 L 12.828125 -24.078125 L 16.921875 -24.078125 L 27.5625 0 Z M 12.90625 -15.546875 L 10.1875 -9.359375 L 19.375 -9.359375 L 16.578125 -15.6875 C 15.941406 -17.113281 15.335938 -18.628906 14.765625 -20.234375 C 14.460938 -19.378906 14.15625 -18.5625 13.84375 -17.78125 C 13.539062 -17.007812 13.226562 -16.265625 12.90625 -15.546875 Z M 12.90625 -15.546875 "/></g></g></g><g fill="#000000" fill-opacity="1"><g transform="translate(176.043984, 212.303937)"><g><path d="M 24.90625 -24.078125 L 28.625 -24.078125 L 28.625 0 L 25.015625 0 L 8.078125 -18.71875 C 8.222656 -17.25 8.363281 -15.789062 8.5 -14.34375 C 8.632812 -12.90625 8.703125 -11.460938 8.703125 -10.015625 L 8.703125 0 L 4.984375 0 L 4.984375 -24.078125 L 8.53125 -24.078125 L 25.453125 -4.921875 C 25.316406 -6.046875 25.203125 -7.253906 25.109375 -8.546875 C 25.023438 -9.847656 24.96875 -11.148438 24.9375 -12.453125 C 24.914062 -13.765625 24.90625 -15.003906 24.90625 -16.171875 Z M 24.90625 -24.078125 "/></g></g></g><g fill="#000000" fill-opacity="1"><g transform="translate(209.65462, 212.303937)"><g><path d="M 23.53125 0 L 20.953125 -5.78125 L 8.59375 -5.78125 L 6.015625 0 L 2.171875 0 L 12.828125 -24.078125 L 16.921875 -24.078125 L 27.5625 0 Z M 12.90625 -15.546875 L 10.1875 -9.359375 L 19.375 -9.359375 L 16.578125 -15.6875 C 15.941406 -17.113281 15.335938 -18.628906 14.765625 -20.234375 C 14.460938 -19.378906 14.15625 -18.5625 13.84375 -17.78125 C 13.539062 -17.007812 13.226562 -16.265625 12.90625 -15.546875 Z M 12.90625 -15.546875 "/></g></g></g><g fill="#000000" fill-opacity="1"><g transform="translate(239.377843, 212.303937)"><g><path d="M 10.21875 -0.171875 C 10.21875 0.785156 9.941406 1.707031 9.390625 2.59375 C 8.835938 3.476562 8.132812 4.273438 7.28125 4.984375 C 6.4375 5.703125 5.566406 6.242188 4.671875 6.609375 L 3.171875 4.84375 C 4.128906 4.300781 4.914062 3.722656 5.53125 3.109375 C 6.15625 2.503906 6.46875 1.972656 6.46875 1.515625 C 6.46875 1.097656 6.320312 0.75 6.03125 0.46875 C 5.75 0.195312 5.414062 -0.0546875 5.03125 -0.296875 C 4.65625 -0.535156 4.320312 -0.8125 4.03125 -1.125 C 3.75 -1.445312 3.609375 -1.875 3.609375 -2.40625 C 3.609375 -3.144531 3.863281 -3.695312 4.375 -4.0625 C 4.894531 -4.425781 5.523438 -4.609375 6.265625 -4.609375 C 6.929688 -4.609375 7.5625 -4.414062 8.15625 -4.03125 C 8.75 -3.65625 9.238281 -3.132812 9.625 -2.46875 C 10.019531 -1.8125 10.21875 -1.046875 10.21875 -0.171875 Z M 10.21875 -0.171875 "/></g></g></g><g fill="#000000" fill-opacity="1"><g transform="translate(253.172998, 212.303937)"><g/></g></g><g fill="#000000" fill-opacity="1"><g transform="translate(266.761734, 212.303937)"><g><path d="M 18.921875 0 L 4.75 0 L 4.75 -3.578125 L 9.984375 -3.578125 L 9.984375 -20.5 L 4.75 -20.5 L 4.75 -24.078125 L 18.921875 -24.078125 L 18.921875 -20.5 L 13.6875 -20.5 L 13.6875 -3.578125 L 18.921875 -3.578125 Z M 18.921875 0 "/></g></g></g><g fill="#000000" fill-opacity="1"><g transform="translate(290.464629, 212.303937)"><g><path d="M 24.90625 -24.078125 L 28.625 -24.078125 L 28.625 0 L 25.015625 0 L 8.078125 -18.71875 C 8.222656 -17.25 8.363281 -15.789062 8.5 -14.34375 C 8.632812 -12.90625 8.703125 -11.460938 8.703125 -10.015625 L 8.703125 0 L 4.984375 0 L 4.984375 -24.078125 L 8.53125 -24.078125 L 25.453125 -4.921875 C 25.316406 -6.046875 25.203125 -7.253906 25.109375 -8.546875 C 25.023438 -9.847656 24.96875 -11.148438 24.9375 -12.453125 C 24.914062 -13.765625 24.90625 -15.003906 24.90625 -16.171875 Z M 24.90625 -24.078125 "/></g></g></g><g fill="#000000" fill-opacity="1"><g transform="translate(324.075266, 212.303937)"><g><path d="M 25.90625 -3.296875 C 25.332031 -2.753906 24.546875 -2.203125 23.546875 -1.640625 C 22.546875 -1.078125 21.40625 -0.601562 20.125 -0.21875 C 18.84375 0.15625 17.476562 0.34375 16.03125 0.34375 C 14.21875 0.34375 12.535156 0.0507812 10.984375 -0.53125 C 9.441406 -1.113281 8.082031 -1.941406 6.90625 -3.015625 C 5.738281 -4.097656 4.828125 -5.398438 4.171875 -6.921875 C 3.523438 -8.453125 3.203125 -10.160156 3.203125 -12.046875 C 3.203125 -13.804688 3.546875 -15.429688 4.234375 -16.921875 C 4.921875 -18.421875 5.863281 -19.71875 7.0625 -20.8125 C 8.269531 -21.914062 9.65625 -22.769531 11.21875 -23.375 C 12.78125 -23.988281 14.429688 -24.296875 16.171875 -24.296875 C 17.617188 -24.296875 18.988281 -24.09375 20.28125 -23.6875 C 21.570312 -23.289062 22.726562 -22.78125 23.75 -22.15625 C 24.769531 -21.539062 25.59375 -20.890625 26.21875 -20.203125 L 23.875 -17.3125 C 22.800781 -18.269531 21.613281 -19.054688 20.3125 -19.671875 C 19.019531 -20.296875 17.570312 -20.609375 15.96875 -20.609375 C 14.84375 -20.609375 13.738281 -20.410156 12.65625 -20.015625 C 11.582031 -19.628906 10.617188 -19.0625 9.765625 -18.3125 C 8.921875 -17.570312 8.242188 -16.671875 7.734375 -15.609375 C 7.234375 -14.554688 6.984375 -13.367188 6.984375 -12.046875 C 6.984375 -10.117188 7.429688 -8.503906 8.328125 -7.203125 C 9.222656 -5.910156 10.382812 -4.941406 11.8125 -4.296875 C 13.25 -3.660156 14.796875 -3.34375 16.453125 -3.34375 C 17.617188 -3.34375 18.671875 -3.492188 19.609375 -3.796875 C 20.546875 -4.109375 21.390625 -4.5 22.140625 -4.96875 C 22.890625 -5.4375 23.535156 -5.898438 24.078125 -6.359375 Z M 25.90625 -3.296875 "/></g></g></g><g fill="#000000" fill-opacity="1"><g transform="translate(353.248059, 212.303937)"><g><path d="M 7.015625 0.375 C 5.960938 0.375 5.1875 0.140625 4.6875 -0.328125 C 4.195312 -0.796875 3.953125 -1.421875 3.953125 -2.203125 C 3.953125 -2.867188 4.195312 -3.460938 4.6875 -3.984375 C 5.1875 -4.515625 5.960938 -4.78125 7.015625 -4.78125 C 8.046875 -4.78125 8.804688 -4.546875 9.296875 -4.078125 C 9.796875 -3.609375 10.046875 -2.984375 10.046875 -2.203125 C 10.046875 -1.554688 9.796875 -0.960938 9.296875 -0.421875 C 8.804688 0.109375 8.046875 0.375 7.015625 0.375 Z M 7.015625 0.375 "/></g></g></g><g fill="#000000" fill-opacity="1"><g transform="translate(141.73127, 245.858979)"><g><path d="M 12.5625 -8.28125 C 12.5625 -7.488281 12.3125 -6.765625 11.8125 -6.109375 C 11.320312 -5.460938 10.695312 -5.003906 9.9375 -4.734375 L 13.15625 0.015625 L 10.875 0 L 7.859375 -4.46875 L 4.359375 -4.46875 L 4.359375 0 L 2.5 0 L 2.5 -12.046875 L 8.6875 -12.046875 C 9.363281 -12.046875 9.992188 -11.882812 10.578125 -11.5625 C 11.160156 -11.238281 11.632812 -10.796875 12 -10.234375 C 12.375 -9.671875 12.5625 -9.019531 12.5625 -8.28125 Z M 8.25 -10.25 L 4.359375 -10.25 L 4.359375 -6.265625 L 8.484375 -6.265625 C 8.878906 -6.265625 9.238281 -6.359375 9.5625 -6.546875 C 9.882812 -6.734375 10.140625 -6.984375 10.328125 -7.296875 C 10.515625 -7.609375 10.609375 -7.941406 10.609375 -8.296875 C 10.609375 -8.671875 10.5 -9.003906 10.28125 -9.296875 C 10.0625 -9.597656 9.773438 -9.832031 9.421875 -10 C 9.066406 -10.164062 8.675781 -10.25 8.25 -10.25 Z M 8.25 -10.25 "/></g></g></g><g fill="#000000" fill-opacity="1"><g transform="translate(156.730494, 245.858979)"><g><path d="M 2.5 -12.046875 L 11.421875 -12.046875 L 11.421875 -10.25 L 4.359375 -10.25 L 4.359375 -7.078125 L 10.484375 -7.078125 L 10.484375 -5.28125 L 4.359375 -5.28125 L 4.359375 -1.796875 L 11.421875 -1.796875 L 11.421875 0 L 2.5 0 Z M 2.5 -12.046875 "/></g></g></g><g fill="#000000" fill-opacity="1"><g transform="translate(170.267636, 245.858979)"><g><path d="M 11.765625 0 L 10.484375 -2.890625 L 4.296875 -2.890625 L 3.015625 0 L 1.078125 0 L 6.421875 -12.046875 L 8.46875 -12.046875 L 13.78125 0 Z M 6.453125 -7.78125 L 5.09375 -4.671875 L 9.6875 -4.671875 L 8.296875 -7.84375 C 7.972656 -8.550781 7.664062 -9.304688 7.375 -10.109375 C 7.226562 -9.691406 7.078125 -9.285156 6.921875 -8.890625 C 6.765625 -8.503906 6.609375 -8.132812 6.453125 -7.78125 Z M 6.453125 -7.78125 "/></g></g></g><g fill="#000000" fill-opacity="1"><g transform="translate(185.129247, 245.858979)"><g><path d="M 11.34375 -1.796875 L 11.34375 0 L 2.5 0 L 2.5 -12.046875 L 4.359375 -12.046875 L 4.359375 -1.796875 Z M 11.34375 -1.796875 "/></g></g></g><g fill="#000000" fill-opacity="1"><g transform="translate(198.305166, 245.858979)"><g/></g></g><g fill="#000000" fill-opacity="1"><g transform="translate(205.099534, 245.858979)"><g><path d="M 2.5 -12.046875 L 11.421875 -12.046875 L 11.421875 -10.25 L 4.359375 -10.25 L 4.359375 -7.078125 L 10.484375 -7.078125 L 10.484375 -5.28125 L 4.359375 -5.28125 L 4.359375 -1.796875 L 11.421875 -1.796875 L 11.421875 0 L 2.5 0 Z M 2.5 -12.046875 "/></g></g></g><g fill="#000000" fill-opacity="1"><g transform="translate(218.636675, 245.858979)"><g><path d="M 2.828125 -3.6875 C 3.421875 -2.976562 4.039062 -2.4375 4.6875 -2.0625 C 5.332031 -1.6875 6.128906 -1.5 7.078125 -1.5 C 7.578125 -1.5 8.054688 -1.5625 8.515625 -1.6875 C 8.984375 -1.820312 9.367188 -2.023438 9.671875 -2.296875 C 9.972656 -2.566406 10.125 -2.898438 10.125 -3.296875 C 10.125 -3.867188 9.820312 -4.28125 9.21875 -4.53125 C 8.613281 -4.789062 7.757812 -5 6.65625 -5.15625 C 5.300781 -5.363281 4.222656 -5.742188 3.421875 -6.296875 C 2.617188 -6.859375 2.21875 -7.671875 2.21875 -8.734375 C 2.21875 -9.460938 2.429688 -10.082031 2.859375 -10.59375 C 3.296875 -11.113281 3.878906 -11.515625 4.609375 -11.796875 C 5.347656 -12.078125 6.15625 -12.21875 7.03125 -12.21875 C 8.132812 -12.21875 9.085938 -12.03125 9.890625 -11.65625 C 10.691406 -11.289062 11.320312 -10.769531 11.78125 -10.09375 L 10.515625 -8.78125 C 10.128906 -9.300781 9.640625 -9.722656 9.046875 -10.046875 C 8.453125 -10.378906 7.765625 -10.546875 6.984375 -10.546875 C 6.179688 -10.546875 5.507812 -10.398438 4.96875 -10.109375 C 4.425781 -9.816406 4.15625 -9.40625 4.15625 -8.875 C 4.15625 -8.257812 4.445312 -7.820312 5.03125 -7.5625 C 5.613281 -7.300781 6.375 -7.097656 7.3125 -6.953125 C 7.925781 -6.859375 8.515625 -6.734375 9.078125 -6.578125 C 9.648438 -6.429688 10.160156 -6.234375 10.609375 -5.984375 C 11.054688 -5.742188 11.410156 -5.429688 11.671875 -5.046875 C 11.941406 -4.671875 12.078125 -4.203125 12.078125 -3.640625 C 12.078125 -2.878906 11.867188 -2.210938 11.453125 -1.640625 C 11.046875 -1.066406 10.457031 -0.617188 9.6875 -0.296875 C 8.925781 0.015625 8.023438 0.171875 6.984375 0.171875 C 5.867188 0.171875 4.863281 -0.0078125 3.96875 -0.375 C 3.070312 -0.738281 2.285156 -1.335938 1.609375 -2.171875 Z M 2.828125 -3.6875 "/></g></g></g><g fill="#000000" fill-opacity="1"><g transform="translate(232.363023, 245.858979)"><g><path d="M 5.28125 0 L 5.28125 -10.25 L 1.21875 -10.25 L 1.21875 -12.046875 L 11.28125 -12.046875 L 11.28125 -10.25 L 7.140625 -10.25 L 7.140625 0 Z M 5.28125 0 "/></g></g></g><g fill="#000000" fill-opacity="1"><g transform="translate(244.86811, 245.858979)"><g><path d="M 11.765625 0 L 10.484375 -2.890625 L 4.296875 -2.890625 L 3.015625 0 L 1.078125 0 L 6.421875 -12.046875 L 8.46875 -12.046875 L 13.78125 0 Z M 6.453125 -7.78125 L 5.09375 -4.671875 L 9.6875 -4.671875 L 8.296875 -7.84375 C 7.972656 -8.550781 7.664062 -9.304688 7.375 -10.109375 C 7.226562 -9.691406 7.078125 -9.285156 6.921875 -8.890625 C 6.765625 -8.503906 6.609375 -8.132812 6.453125 -7.78125 Z M 6.453125 -7.78125 "/></g></g></g><g fill="#000000" fill-opacity="1"><g transform="translate(259.729722, 245.858979)"><g><path d="M 5.28125 0 L 5.28125 -10.25 L 1.21875 -10.25 L 1.21875 -12.046875 L 11.28125 -12.046875 L 11.28125 -10.25 L 7.140625 -10.25 L 7.140625 0 Z M 5.28125 0 "/></g></g></g><g fill="#000000" fill-opacity="1"><g transform="translate(272.234809, 245.858979)"><g><path d="M 2.5 -12.046875 L 11.421875 -12.046875 L 11.421875 -10.25 L 4.359375 -10.25 L 4.359375 -7.078125 L 10.484375 -7.078125 L 10.484375 -5.28125 L 4.359375 -5.28125 L 4.359375 -1.796875 L 11.421875 -1.796875 L 11.421875 0 L 2.5 0 Z M 2.5 -12.046875 "/></g></g></g></svg>